<?xml version="1.0" standalone="no"?><!DOCTYPE svg PUBLIC "-//W3C//DTD SVG 1.1//EN" "http://www.w3.org/Graphics/SVG/1.1/DTD/svg11.dtd"><svg t="1489042752807" class="icon" style="" viewBox="0 0 1315 1024" version="1.1" xmlns="http://www.w3.org/2000/svg" p-id="27885" xmlns:xlink="http://www.w3.org/1999/xlink" width="20.546875" height="16"><defs><style type="text/css"></style></defs><path d="M1231.386871 417.325911" p-id="27886" fill="#ffffff"></path><path d="M1008.847602 332.611634c-7.349084-10.968992-19.730762-17.539149-32.967856-17.539149L936.259002 315.072485c-21.906765 0-39.620744 17.621881-39.620744 39.397524l0 236.293047c0 21.778765 17.713978 39.395963 39.620744 39.395963l158.479854 0c21.905204 0 39.619183-17.617198 39.619183-39.395963l0-59.079896c0-7.764305-2.31493-15.381877-6.649766-21.842765L1008.847602 332.611634zM1094.738856 590.763056 936.259002 590.763056 936.259002 354.454399l39.620744 0 118.860671 177.230322L1094.740417 590.763056zM1272.871423 485.838797 1114.391569 249.533262c-22.128424-32.955368-59.114237-52.604959-98.894201-52.604959L857.017515 196.928303 857.017515 118.147304c0-65.161466-53.318326-118.147304-118.862232-118.147304L143.85349 0c-65.557955 0-118.860671 52.985838-118.860671 118.147304l0 433.233838c0 65.161466 53.302716 118.164475 118.860671 118.164475l0.01561 0 0 118.145743c0 65.159905 53.318326 118.162914 118.860671 118.162914l45.223094 0c17.682759 67.763617 79.208707 118.145743 152.861894 118.145743 73.604796 0 135.115135-50.380565 152.846284-118.145743l209.306859 0c17.729588 67.763617 79.241488 118.145743 152.910284 118.145743 73.589186 0 135.115135-50.380565 152.829113-118.145743l45.271484 0c65.540784 0 118.860671-53.003008 118.860671-118.162914L1292.839454 551.381142C1292.839454 527.999252 1285.950858 505.302632 1272.871423 485.838797zM127.599026 607.01752c-21.856814 0-39.619183-33.873223-39.619183-55.637939L87.979843 118.147304c0-21.763155 17.762369-55.637939 39.619183-55.637939l626.813843 0c21.905204 0 39.619183 33.874784 39.619183 55.637939l0 433.233838c0 21.763155-17.713978 55.637939-39.619183 55.637939L127.599026 607.019081zM463.863348 958.996208l-8.112403-0.062439c-49.412759 0-89.398772-40.046891-89.398772-89.429991 0-49.39871 39.986013-89.447162 89.398772-89.447162 49.3191 0 89.400333 40.046891 89.400333 89.447162C545.152839 918.885317 507.580099 958.996208 463.863348 958.996208zM984.006198 958.996208l-8.126452-0.062439c-49.41432 0-89.384723-40.046891-89.384723-89.429991 0-49.39871 39.968842-89.447162 89.384723-89.447162 49.333149 0 89.398772 40.046891 89.398772 89.447162C1065.276957 918.885317 1027.721387 958.996208 984.006198 958.996208zM1173.980344 827.087322l-45.271484 0c-17.715539-67.779226-79.241488-118.159792-152.829113-118.159792-73.668796 0-135.180696 50.380565-152.910284 118.159792L613.661042 827.087322c-17.729588-67.779226-79.241488-118.159792-152.846284-118.159792-73.654748 0-135.179135 50.380565-152.861894 118.159792l-45.223094 0c-21.905204 0-39.620744-17.617198-39.620744-39.395963l0-118.145743 515.046256 0c65.542345 0 118.862232-53.003008 118.862232-118.164475L857.017515 275.690571l158.479854 0c13.237094 0 25.620332 6.571717 32.969417 17.539149L1206.9482 529.539937c4.333275 6.460888 20.873398 31.589512 20.873398 39.350695l0 211.308033 2.032393 7.492694C1229.853991 809.470124 1195.883988 827.087322 1173.980344 827.087322z" p-id="27887" fill="#ffffff"></path></svg>