<?xml version="1.0" standalone="no"?><!DOCTYPE svg PUBLIC "-//W3C//DTD SVG 1.1//EN" "http://www.w3.org/Graphics/SVG/1.1/DTD/svg11.dtd"><svg t="1489042686153" class="icon" style="" viewBox="0 0 1024 1024" version="1.1" xmlns="http://www.w3.org/2000/svg" p-id="27164" xmlns:xlink="http://www.w3.org/1999/xlink" width="16" height="16"><defs><style type="text/css"></style></defs><path d="M820.18 235.935c-43.612-43.612-101.672-67.606-163.503-67.606s-119.918 24.021-163.529 67.632l-161.393 161.367c-10.415 10.415-10.415 27.396 0 37.81 5.063 5.036 11.76 7.831 18.906 7.831 7.146 0 13.869-2.768 18.906-7.831l161.367-161.367c33.513-33.513 78.179-51.996 125.719-51.996s92.18 18.457 125.692 51.969c69.32 69.32 69.32 182.092 0 251.438l-270.29 270.317-270.343-270.29c-69.32-69.32-69.32-182.118 0-251.411 33.46-33.46 77.862-51.891 125.033-51.891 8.516 0 17.165 0.607 25.682 1.82 1.266 0.185 2.531 0.263 3.797 0.263 13.21 0 24.575-9.888 26.446-22.992 2.057-14.607-8.148-28.161-22.729-30.217-10.758-1.555-21.7-2.32-32.59-2.32-24.443 0-48.463 3.744-71.429 11.153-34.937 11.285-65.917 30.243-92.048 56.347-90.149 90.149-90.149 236.883 0.026 327.032l289.222 289.222c5.036 5.036 11.76 7.831 18.906 7.831s13.843-2.768 18.906-7.831l289.222-289.222c90.203-90.176 90.176-236.883 0.026-327.058z" fill="#ffffff" p-id="27165"></path></svg>