<?xml version="1.0" standalone="no"?><!DOCTYPE svg PUBLIC "-//W3C//DTD SVG 1.1//EN" "http://www.w3.org/Graphics/SVG/1.1/DTD/svg11.dtd"><svg t="1489042948542" class="icon" style="" viewBox="0 0 1024 1024" version="1.1" xmlns="http://www.w3.org/2000/svg" p-id="31105" xmlns:xlink="http://www.w3.org/1999/xlink" width="16" height="16"><defs><style type="text/css"></style></defs><path d="M535.591301 240.415558c-42.364877 0-76.831876-34.466999-76.831876-76.831876s34.466999-76.831876 76.831876-76.831876c42.364877 0 76.831876 34.466999 76.831876 76.831876s-34.466999 76.831876-76.831876 76.831876z m0-116.824729c-22.052249 0-39.992853 17.940604-39.992853 39.992853s17.940604 39.992853 39.992853 39.992853 39.992853-17.940604 39.992853-39.992853-17.941628-39.992853-39.992853-39.992853zM762.806209 577.524342c-76.758198 0-139.204435-62.446237-139.204435-139.204435 0-76.757175 62.446237-139.204435 139.204435-139.204435 76.757175 0 139.203412 62.446237 139.203412 139.204435 0 76.758198-62.447261 139.204435-139.203412 139.204435z m0-241.569847c-56.444547 0-102.365412 45.920866-102.365412 102.365412 0 56.444547 45.920866 102.365412 102.365412 102.365412 56.443523 0 102.364389-45.920866 102.364389-102.365412 0-56.444547-45.920866-102.365412-102.364389-102.365412zM386.986775 885.989763a18.351973 18.351973 0 0 1-12.114922-4.550643c-42.323944-36.996612-66.598814-90.430592-66.598814-146.601916 0-107.329471 87.318718-194.647165 194.646142-194.647165s194.646142 87.317695 194.646142 194.647165c0 54.945403-23.394826 107.5986-64.186882 144.45809-7.547907 6.821359-19.196201 6.229888-26.016536-1.316995-6.820336-7.547907-6.229888-19.196201 1.318018-26.016537 33.075303-29.887704 52.045353-72.577992 52.045353-117.124558 0-87.015819-70.792323-157.808142-157.807119-157.808142-87.015819 0-157.807119 70.792323-157.807118 157.808142 0 45.540196 19.683295 88.864934 54.003961 118.864178 7.659447 6.695492 8.441253 18.331507 1.74576 25.990955a18.371416 18.371416 0 0 1-13.873985 6.297426z" fill="#ffffff" p-id="31106"></path><path d="M502.920204 824.539202c-49.461505 0-89.701998-40.240493-89.701998-89.701998s40.240493-89.701998 89.701998-89.701998c49.461505 0 89.701998 40.240493 89.701998 89.701998s-40.240493 89.701998-89.701998 89.701998z m0-142.564973c-29.148877 0-52.862975 23.714098-52.862975 52.862975s23.714098 52.862975 52.862975 52.862975 52.862975-23.714098 52.862975-52.862975-23.714098-52.862975-52.862975-52.862975zM762.806209 499.311003c-33.630958 0-60.992119-27.360138-60.992119-60.991096s27.360138-60.991096 60.992119-60.991096c33.629935 0 60.991096 27.360138 60.991096 60.991096s-27.361161 60.991096-60.991096 60.991096z m0-85.143169c-13.31833 0-24.153096 10.834766-24.153096 24.152073s10.834766 24.152073 24.153096 24.152073c13.317307 0 24.152073-10.834766 24.152073-24.152073s-10.835789-24.152073-24.152073-24.152073zM829.839929 244.252956c-44.481074 0-80.669274-36.1882-80.669275-80.669274s36.1882-80.669274 80.669275-80.669274 80.669274 36.1882 80.669274 80.669274-36.1882 80.669274-80.669274 80.669274z m0-124.499525c-24.167422 0-43.830251 19.661805-43.830252 43.830251s19.662829 43.830251 43.830252 43.830251 43.830251-19.661805 43.830251-43.830251-19.661805-43.830251-43.830251-43.830251zM434.619632 589.901231c-5.446036 0-10.837836-2.40477-14.473643-7.011694-6.30152-7.986905-4.934382-19.568684 3.051499-25.870204l206.423373-162.861228c7.987928-6.299473 19.567661-4.935406 25.870204 3.051499 6.300496 7.986905 4.934382 19.568684-3.051499 25.870204L446.016193 585.941036a18.343787 18.343787 0 0 1-11.396561 3.960195zM679.130462 753.258763a18.337647 18.337647 0 0 1-10.58815-3.360538c-8.318456-5.856381-10.313903-17.347087-4.456498-25.664519l129.349997-183.715186c5.857405-8.318456 17.347087-10.311857 25.664519-4.456498 8.318456 5.856381 10.313903 17.347087 4.456498 25.664519L694.206832 745.440703c-3.585665 5.095042-9.286504 7.818059-15.07637 7.81806z" fill="#ffffff" p-id="31107"></path><path d="M873.611851 408.398434c-0.372483 0-0.74599-0.011256-1.122567-0.033769-10.154267-0.610914-17.891486-9.337669-17.281595-19.491937l11.739369-195.292871c0.610914-10.154267 9.307993-17.885346 19.491936-17.281595 10.154267 0.610914 17.891486 9.337669 17.281595 19.491936l-11.739368 195.292872c-0.587378 9.778714-8.702196 17.315364-18.36937 17.315364zM723.106022 335.832721c-3.085268 0-6.211469-0.775666-9.085936-2.408862-8.843412-5.027503-11.93789-16.271592-6.910386-25.115004l57.627488-101.380992c5.02648-8.843412 16.270569-11.938913 25.116028-6.910387 8.843412 5.027503 11.93789 16.271592 6.910386 25.115004l-57.627488 101.380992c-3.394307 5.968945-9.622148 9.31925-16.030092 9.319249zM767.481695 142.897547H582.123081c-10.172687 0-18.419512-8.246825-18.419512-18.419511s8.246825-18.419512 18.419512-18.419512h185.358614c10.172687 0 18.419512 8.246825 18.419512 18.419512s-8.246825 18.419512-18.419512 18.419511z" fill="#ffffff" p-id="31108"></path><path d="M761.541403 209.725582H596.47802c-10.172687 0-18.419512-8.246825-18.419512-18.419512s8.246825-18.419512 18.419512-18.419511h165.063383c10.172687 0 18.419512 8.246825 18.419511 18.419511s-8.245801 18.419512-18.419511 18.419512zM470.743364 178.599677h-58.907645c-10.172687 0-18.419512-8.246825-18.419511-18.419511s8.246825-18.419512 18.419511-18.419512h58.907645c10.172687 0 18.419512 8.246825 18.419512 18.419512s-8.246825 18.419512-18.419512 18.419511z" fill="#ffffff" p-id="31109"></path><path d="M328.672648 263.74387c-22.493294 0-43.808762-7.204076-61.640896-20.833491-8.082072-6.1777-9.627265-17.736966-3.449565-25.820062 6.1777-8.081049 17.736966-9.626241 25.820062-3.449565 11.353582 8.677637 24.932856 13.264095 39.270399 13.264095 35.700083 0 64.74356-29.0445 64.74356-64.744584s-29.043477-64.74356-64.74356-64.74356c-15.135722 0-29.310559 5.057179-40.9916 14.626116-7.868201 6.446829-19.47454 5.293563-25.921369-2.577708-6.445806-7.869225-5.29254-19.47454 2.577708-25.92137 18.079774-14.810311 40.928155-22.966061 64.335261-22.966061 56.012711 0 101.582583 45.569872 101.582583 101.582583s-45.568848 101.583606-101.582583 101.583607zM837.310064 961.194582H173.528172c-10.172687 0-18.419512-8.246825-18.419512-18.419511v-74.702376c0-10.172687 8.246825-18.419512 18.419512-18.419512h663.781892c10.172687 0 18.419512 8.246825 18.419511 18.419512v74.702376c0 10.172687-8.245801 18.419512-18.419511 18.419511z m-645.362381-36.839023h626.942869v-37.863353H191.947683v37.863353z" fill="#ffffff" p-id="31110"></path></svg>