<?xml version="1.0" standalone="no"?><!DOCTYPE svg PUBLIC "-//W3C//DTD SVG 1.1//EN" "http://www.w3.org/Graphics/SVG/1.1/DTD/svg11.dtd"><svg t="1489042616438" class="icon" style="" viewBox="0 0 1024 1024" version="1.1" xmlns="http://www.w3.org/2000/svg" p-id="26442" xmlns:xlink="http://www.w3.org/1999/xlink" width="16" height="16"><defs><style type="text/css"></style></defs><path d="M512.063824 76.206432c241.001247 0 437.133882 196.132635 437.133882 437.197706 0 241.128896-196.068811 437.197706-437.133882 437.197706-241.065071 0-437.261531-196.068811-437.261531-437.197706C74.802294 272.402892 270.998753 76.206432 512.063824 76.206432M512.063824 2.808277C230.08726 2.808277 1.404139 231.491399 1.404139 513.404139c0 281.91274 228.619297 510.595861 510.595861 510.595861s510.595861-228.619297 510.595861-510.595861C1022.595861 231.491399 793.976564 2.808277 512.063824 2.808277L512.063824 2.808277z" p-id="26443" fill="#ffffff"></path><path d="M473.513837 475.045625 358.182997 475.045625l0 38.486163 115.33084 0 0 0L473.513837 590.376465 319.760658 590.376465l0 38.549988 153.753179 0 0 115.33084 77.036151 0L550.549988 628.926452l153.689354 0L704.239342 590.248816l-153.817003 0L550.422339 513.404139l0 0 115.394665 0L665.817003 474.9818 550.422339 474.9818l115.394665-192.239342L588.908502 282.742458 512 436.495637 435.027674 282.742458 358.182997 282.742458 473.513837 475.045625z" p-id="26444" fill="#ffffff"></path></svg>