<?xml version="1.0" standalone="no"?><!DOCTYPE svg PUBLIC "-//W3C//DTD SVG 1.1//EN" "http://www.w3.org/Graphics/SVG/1.1/DTD/svg11.dtd"><svg t="1489042429633" class="icon" style="" viewBox="0 0 1409 1024" version="1.1" xmlns="http://www.w3.org/2000/svg" p-id="24465" xmlns:xlink="http://www.w3.org/1999/xlink" width="22.015625" height="16"><defs><style type="text/css"></style></defs><path d="M32.715213 1023.993486c-18.037662 0-32.707926-14.684065-32.707926-32.721727L0.007287 84.850931c0-13.683506 8.625508-26.031093 21.463024-30.72751 24.710355-9.035392 157.263023-54.126788 340.627523-54.126788 117.362113 0 232.891477 18.16877 343.373885 53.998441 13.527557 4.384518 22.622292 16.894955 22.622292 31.130494l0 899.189202c0 18.044563-14.670264 32.721727-32.694126 32.721727-2.419282 0-4.848226-0.262215-7.217825-0.800447-40.515046-9.136138-185.40288-38.959695-348.535389-38.959695-115.694974 0-215.147772 15.029085-295.59133 44.687032C40.402266 1023.303445 36.586341 1023.993486 32.715213 1023.993486zM49.434898 96.712729l0 871.083847c81.576605-26.511362 179.061407-39.946453 290.209013-39.946453 147.333338 0 280.210324 23.578689 339.019728 35.764807L678.66364 97.340666c-102.045971-31.799833-208.477839-47.912282-316.565806-47.912282C205.869872 49.424244 89.277845 83.353542 49.434898 96.712729zM713.156011 1023.993486c-18.033522 0-32.707926-14.684065-32.707926-32.721727L680.448085 84.850931c0-13.683506 8.629648-26.031093 21.469925-30.72751 24.699315-9.035392 157.256122-54.126788 340.620623-54.126788 117.362113 0 232.888717 18.16877 343.369744 53.998441 13.531697 4.384518 22.626433 16.894955 22.626433 31.130494l0 899.189202c0 18.044563-14.663364 32.721727-32.687225 32.721727-2.428943 0-4.857886-0.262215-7.217825-0.800447-40.519187-9.136138-185.413921-38.959695-348.538149-38.959695-115.706015 0-215.154673 15.029085-295.598231 44.687032C720.849964 1023.303445 717.027139 1023.993486 713.156011 1023.993486zM729.875696 96.712729l0 871.083847c81.576605-26.518262 179.065547-39.953353 290.215914-39.953353 147.330578 0 280.203424 23.585589 339.015588 35.771707L1359.107198 97.340666c-102.050111-31.799833-208.475079-47.916422-316.568566-47.916422C886.31343 49.424244 769.718643 83.353542 729.875696 96.712729zM156.249049 291.914187l-0.013801-0.048303c-3.597872-13.658664 4.957252-27.539522 18.776006-30.479095 25.044335-5.322974 66.920142-13.055569 117.709893-17.885853 99.103637-9.421815 186.168825-3.866988 259.296573 16.498872 13.727669 3.822825 21.460264 18.34404 16.857693 31.827435l0 0c-4.212008 12.347587-17.31588 19.36254-29.88566 15.866795-134.691793-37.441605-295.043438-10.249864-353.717594 2.104624C172.375299 312.5188 159.609547 304.661997 156.249049 291.914187zM156.249049 493.570284l-0.013801-0.048303c-3.597872-13.658664 4.957252-27.539522 18.776006-30.479095 25.044335-5.322974 66.920142-13.055569 117.709893-17.885853 99.103637-9.421815 186.168825-3.866988 259.296573 16.498872 13.727669 3.822825 21.460264 18.34404 16.857693 31.827435l0 0c-4.212008 12.347587-17.31588 19.36254-29.88566 15.866795-134.691793-37.441605-295.043438-10.249864-353.717594 2.104624C172.375299 514.174898 159.609547 506.319475 156.249049 493.570284zM156.249049 679.982004l-0.013801-0.055203c-3.597872-13.655904 4.957252-27.539522 18.776006-30.472195 25.044335-5.327114 66.920142-13.055569 117.709893-17.885853 99.103637-9.425955 186.168825-3.878028 259.296573 16.491971 13.727669 3.822825 21.460264 18.348181 16.857693 31.831575l0 0c-4.212008 12.344827-17.31588 19.35564-29.88566 15.864034-134.691793-37.441605-295.043438-10.254004-353.717594 2.111524C172.375299 700.585237 159.609547 692.725674 156.249049 679.982004zM837.934681 291.914187l-0.013801-0.048303c-3.602012-13.658664 4.954492-27.539522 18.769106-30.479095 25.048475-5.322974 66.920142-13.055569 117.714033-17.885853 99.103637-9.421815 186.166065-3.866988 259.296573 16.498872 13.731809 3.822825 21.460264 18.34404 16.857693 31.827435l0 0c-4.216148 12.347587-17.31312 19.36254-29.88566 15.866795-134.695934-37.441605-295.046198-10.249864-353.713454 2.104624C854.05403 312.5188 841.288278 304.661997 837.934681 291.914187zM837.934681 493.570284l-0.013801-0.048303c-3.602012-13.658664 4.954492-27.539522 18.769106-30.479095 25.048475-5.322974 66.920142-13.055569 117.714033-17.885853 99.103637-9.421815 186.166065-3.866988 259.296573 16.498872 13.731809 3.822825 21.460264 18.34404 16.857693 31.827435l0 0c-4.216148 12.347587-17.31312 19.36254-29.88566 15.866795-134.695934-37.441605-295.046198-10.249864-353.713454 2.104624C854.05403 514.174898 841.288278 506.319475 837.934681 493.570284zM837.934681 679.982004l-0.013801-0.055203c-3.602012-13.655904 4.954492-27.539522 18.769106-30.472195 25.048475-5.327114 66.920142-13.055569 117.714033-17.885853 99.103637-9.425955 186.166065-3.878028 259.296573 16.491971 13.731809 3.822825 21.460264 18.348181 16.857693 31.831575l0 0c-4.216148 12.344827-17.31312 19.35564-29.88566 15.864034-134.695934-37.441605-295.046198-10.254004-353.713454 2.111524C854.05403 700.585237 841.288278 692.725674 837.934681 679.982004z" p-id="24466" fill="#ffffff"></path></svg>