<?xml version="1.0" standalone="no"?><!DOCTYPE svg PUBLIC "-//W3C//DTD SVG 1.1//EN" "http://www.w3.org/Graphics/SVG/1.1/DTD/svg11.dtd"><svg t="1489042846888" class="icon" style="" viewBox="0 0 1024 1024" version="1.1" xmlns="http://www.w3.org/2000/svg" p-id="29082" xmlns:xlink="http://www.w3.org/1999/xlink" width="16" height="16"><defs><style type="text/css"></style></defs><path d="M513.344 344.416c-90.56 0-164.224 73.632-164.224 164.16s73.664 164.192 164.224 164.192 164.192-73.664 164.192-164.192S603.904 344.416 513.344 344.416zM513.344 618.528c-60.64 0-109.952-49.312-109.952-109.952s49.344-109.952 109.952-109.952 109.952 49.312 109.952 109.952S573.984 618.528 513.344 618.528zM861.312 386.592 845.44 386.592l-1.248-3.296-4.416 1.92 3.84-3.168c-2.784-7.232-5.344-13.472-7.904-19.104l-1.28-2.848 11.232-11.264c21.056-21.024 32.672-49.024 32.672-78.784s-11.584-57.76-32.672-78.816L830.784 176.32c-21.056-21.056-49.056-32.64-78.848-32.64-29.76 0-57.76 11.584-78.816 32.64l-11.232 11.264-2.848-1.28c-6.08-2.752-12.864-5.536-20.736-8.48l-2.912-1.12 0-16c0-61.472-50.016-111.456-111.488-111.456l-21.088 0c-61.472 0-111.488 50.016-111.488 111.456l0 16-2.912 1.088c-7.84 2.944-14.624 5.76-20.736 8.512L364.8 187.552 353.568 176.32c-21.056-21.056-49.056-32.64-78.816-32.64-29.76 0-57.76 11.584-78.816 32.64L180.992 191.232C159.936 212.288 148.352 240.256 148.352 270.048c0 29.76 11.584 57.76 32.672 78.816l11.232 11.264-1.28 2.816c-2.56 5.664-5.056 11.712-7.936 19.168l-1.792 4.48L165.344 386.592c-61.472 0-111.488 50.016-111.488 111.456l0 21.088c0 61.472 50.016 111.456 111.488 111.456l15.872 0 1.792 4.544c2.784 7.264 5.344 13.504 7.904 19.136l1.28 2.816-11.232 11.264c-21.056 21.056-32.64 49.024-32.64 78.816s11.584 57.76 32.64 78.816l14.912 14.912c21.056 21.056 49.056 32.64 78.816 32.64 29.76 0 57.76-11.584 78.816-32.64l11.264-11.232 2.848 1.28c6.112 2.752 12.896 5.536 20.736 8.48l2.912 1.12 0 15.968c0 61.472 50.016 111.456 111.488 111.456l21.088 0c61.472 0 111.488-50.016 111.488-111.456l0-15.968 2.912-1.12c7.872-2.944 14.656-5.728 20.736-8.48l2.816-1.28 11.264 11.232c21.056 21.056 49.024 32.64 78.816 32.64s57.792-11.584 78.848-32.64l14.912-14.912c21.056-21.024 32.672-49.024 32.672-78.816s-11.584-57.792-32.672-78.816l-11.232-11.264 1.28-2.848c2.56-5.632 5.12-11.904 7.936-19.168l-4.48-1.728 0 0 5.216 0.064 1.056-2.816 15.872 0c61.472 0 111.488-50.016 111.488-111.456l0-21.088C972.8 436.608 922.784 386.592 861.312 386.592zM916.032 469.28 916.032 469.28 916.032 469.28 916.032 469.28zM782.688 201.504 782.688 201.504 782.688 201.504 782.688 201.504zM111.136 548.768 111.136 548.768 111.136 548.768 111.136 548.768zM205.824 777.184 205.824 777.184 205.824 777.184 205.824 777.184zM472.224 910.24 472.224 910.24 472.224 910.24 472.224 910.24zM552.832 911.104 552.832 911.104 552.832 911.104 552.832 911.104zM918.56 519.136c0 3.648-0.384 7.392-1.152 11.168-0.256 1.312-0.64 2.4-0.928 3.328l-0.672 2.24c-0.384 1.44-0.832 3.104-1.536 4.832-0.736 1.792-1.632 3.36-2.848 5.6l-0.576 1.088c-0.384 0.736-0.832 1.6-1.44 2.56-1.568 2.432-3.328 4.576-5.344 6.88-0.224 0.288-0.544 0.704-0.96 1.152-1.952 2.08-4.192 4.096-7.552 6.72-8.384 6.304-18.464 10.144-29.024 11.136-0.544 0.032-1.088 0.096-1.696 0.192-0.96 0.128-2.144 0.288-3.488 0.288l-56.192 0-0.896 3.648c-7.04 28.448-18.88 56.448-35.2 83.232l-1.984 3.232 40.256 40.256c8.736 8.736 14.272 20 16.096 33.408 0.448 3.424 0.576 6.4 0.48 9.12-0.032 0.672-0.096 1.248-0.192 2.304-0.16 2.368-0.416 5.12-1.024 7.872-0.224 1.024-0.544 1.92-0.768 2.656l-0.704 2.432c-0.448 1.472-0.928 3.136-1.696 4.96-0.672 1.664-1.504 3.072-2.784 5.344L816 776.128c-0.384 0.768-0.864 1.76-1.536 2.752-2.144 3.2-4.544 6.112-7.104 8.704l-14.944 14.912c-2.592 2.56-5.472 4.96-8.736 7.136-0.992 0.672-1.92 1.12-2.656 1.504l-1.344 0.704 2.368 4.16 0 0-3.552-3.488c-1.248 0.704-2.656 1.504-4.288 2.176-1.632 0.704-3.168 1.152-4.768 1.6l1.344 4.608 0 0-2.784-4.192-1.184 0.384c-0.672 0.224-1.568 0.512-2.592 0.704-2.816 0.64-5.568 0.896-7.648 1.056l-4.384 0.256c-2.24 0-4.672-0.192-8.192-0.608-12.544-1.76-23.776-7.296-32.512-16l-40.192-40.224-3.232 1.984c-26.848 16.384-54.848 28.256-83.296 35.264l-3.648 0.896 0 56.064c0 1.408-0.16 2.656-0.288 3.552l-0.192 1.536c-0.96 10.656-4.8 20.704-11.648 29.792-2.08 2.688-4.096 4.928-6.24 6.912-0.448 0.416-0.832 0.736-1.696 1.376-1.888 1.632-4 3.36-6.336 4.896-0.896 0.576-1.76 1.024-2.752 1.536l-1.472 0.768c-1.472 0.832-3.136 1.76-5.088 2.592-1.696 0.672-3.328 1.12-5.856 1.824l-1.344 0.416c-0.832 0.288-1.888 0.64-3.136 0.864-3.712 0.736-7.488 1.12-11.2 1.12l-21.088 0c-3.712 0-7.456-0.384-11.2-1.12-1.216-0.256-2.24-0.608-3.328-0.96l-2.272-0.672c-1.408-0.384-3.04-0.832-4.8-1.536-1.888-0.8-3.552-1.728-5.76-2.944l-1.088-0.576c-0.672-0.32-1.504-0.736-2.368-1.344-2.496-1.6-4.608-3.36-6.816-5.28-0.32-0.256-0.768-0.576-1.312-1.088-2.08-1.952-4.128-4.192-6.752-7.616-6.272-8.384-10.112-18.4-11.072-28.928l-0.192-1.632c-0.128-0.96-0.32-2.176-0.32-3.552l0-56.032-3.648-0.896c-28.448-7.04-56.48-18.912-83.296-35.264l-3.232-1.984L315.2 802.528c-8.736 8.704-19.968 14.24-33.312 16.096-2.72 0.32-5.12 0.512-7.36 0.512l-4.096-0.224c-2.336-0.192-5.088-0.448-7.968-1.088-0.992-0.192-1.856-0.48-2.56-0.704l-1.408-0.416-1.312 4.608 0 0 0-4.992c-1.408-0.416-3.008-0.864-4.704-1.6-1.664-0.672-3.136-1.536-5.44-2.848l-1.408-0.736c-0.768-0.384-1.696-0.864-2.656-1.472-3.168-2.144-6.112-4.544-8.704-7.104l-14.912-14.912C216.768 785.024 214.4 782.112 212.256 778.88c-0.672-0.992-1.152-1.984-1.824-3.264l-0.992-1.792c-0.736-1.312-1.568-2.752-2.304-4.512s-1.216-3.392-1.632-4.864l-0.768-2.624c-0.224-0.672-0.512-1.504-0.704-2.432-0.608-2.72-0.832-5.44-1.152-8.896l-0.096-1.28c-0.096-2.784 0.032-5.76 0.576-10.112 1.76-12.512 7.296-23.744 16-32.448l40.256-40.256-1.984-3.232c-16.32-26.784-28.16-54.784-35.232-83.232l-0.896-3.648L165.344 576.288c-1.376 0-2.592-0.16-3.648-0.32l-0.64 4.736-0.8-4.928c-10.688-0.96-20.768-4.8-29.824-11.648-2.624-2.016-4.864-4.064-6.816-6.112-0.448-0.48-0.768-0.896-1.472-1.824-1.536-1.76-3.296-3.904-4.896-6.368-0.544-0.8-0.928-1.568-1.28-2.208l-4.384 1.952 3.776-3.136-0.576-1.056c-0.768-1.408-1.664-2.976-2.432-4.832-0.704-1.728-1.152-3.36-1.824-5.824l-0.416-1.344c-0.288-0.864-0.64-1.952-0.896-3.232-0.736-3.68-1.152-7.424-1.152-11.168l0-21.088c0-3.744 0.384-7.456 1.152-11.168 0.256-1.312 0.64-2.4 0.928-3.328l0.704-2.336c0.384-1.408 0.832-3.04 1.504-4.704 0.736-1.792 1.6-3.328 2.88-5.664l0.576-1.12c0.352-0.672 0.8-1.568 1.408-2.528 1.536-2.4 3.264-4.416 5.408-7.008 0.192-0.256 0.48-0.608 0.896-1.056 1.952-2.112 4.192-4.128 7.52-6.72 8.384-6.304 18.464-10.144 29.12-11.104l1.568-0.192c0.96-0.128 2.176-0.32 3.552-0.32l56.192 0 0.896-3.648c7.04-28.48 18.88-56.448 35.2-83.232l1.984-3.232L219.36 310.496C210.656 301.792 205.12 290.56 203.264 277.024 202.816 273.664 202.688 270.688 202.784 267.936l0.192-2.24C203.2 263.2 203.424 260.512 204.032 257.728c0.192-0.992 0.512-1.888 0.704-2.592l0.832-2.784c0.416-1.376 0.864-2.944 1.536-4.544 0.704-1.664 1.536-3.168 2.304-4.448l0.608-1.12L205.856 239.968l4.864 1.056c0.384-0.768 0.864-1.728 1.536-2.752 2.08-3.168 4.48-6.08 7.104-8.704L234.24 214.656c2.656-2.592 5.568-4.992 8.736-7.136 0.992-0.64 1.952-1.12 2.912-1.632l2.144-1.184C249.344 204 250.816 203.168 252.48 202.464c1.728-0.736 3.36-1.216 4.672-1.6l2.88-0.864c0.672-0.192 1.472-0.48 2.496-0.672C265.344 198.688 268.16 198.464 271.04 198.24c0.416-0.032 0.896-0.096 1.6-0.128l1.696-0.032c2.304 0 4.704 0.16 8.416 0.608 12.512 1.76 23.744 7.296 32.448 16l40.192 40.224 3.232-1.984c26.752-16.352 54.784-28.224 83.296-35.264l3.648-0.896L445.568 160.672c0-1.408 0.16-2.656 0.288-3.584l0.192-1.504c0.96-10.656 4.8-20.704 11.648-29.792 2.08-2.656 4.096-4.928 6.24-6.912 0.48-0.448 0.896-0.768 1.664-1.376 1.92-1.632 4-3.392 6.4-4.896 0.864-0.576 1.696-0.992 2.848-1.6l1.216-0.64c1.504-0.832 3.232-1.824 5.184-2.624 1.696-0.704 3.328-1.152 4.8-1.536l2.432-0.736c0.832-0.288 1.888-0.64 3.136-0.864 3.712-0.736 7.456-1.12 11.168-1.12l21.088 0c3.712 0 7.456 0.384 11.232 1.152 1.184 0.224 2.176 0.576 3.296 0.928l2.24 0.672c1.44 0.384 3.072 0.832 4.8 1.536 1.92 0.768 3.584 1.728 5.728 2.912l1.472 0.736c0.608 0.32 1.312 0.672 2.016 1.152 2.4 1.568 4.512 3.296 6.88 5.312 0.288 0.256 0.736 0.576 1.248 1.056 2.112 1.984 4.16 4.224 6.752 7.584 6.304 8.384 10.112 18.432 11.136 29.312l0.16 1.408c0.128 0.96 0.288 2.112 0.288 3.456l0 56.032 3.648 0.896c28.48 7.04 56.512 18.912 83.296 35.264l3.232 1.984 40.224-40.224c8.704-8.672 19.936-14.208 33.6-16.064 2.592-0.352 4.96-0.512 7.264-0.512l1.696 0.032c0.64 0 1.184 0.096 2.336 0.224 2.144 0.16 4.96 0.416 7.808 1.024 1.024 0.224 1.92 0.512 3.776 1.088l1.408 0.416c1.44 0.416 3.104 0.896 4.832 1.632 1.728 0.704 3.2 1.568 5.44 2.848l1.536 0.8c0.704 0.384 1.6 0.8 2.56 1.44 3.136 2.112 6.048 4.512 8.672 7.072l14.912 14.944c2.56 2.592 4.96 5.504 7.072 8.672 0.672 0.992 1.152 1.984 1.792 3.232l1.056 1.888c0.704 1.312 1.568 2.752 2.24 4.416 0.736 1.76 1.248 3.424 1.664 4.96l0.768 2.56C822.176 256 822.432 256.832 822.656 257.76c0.64 2.816 0.864 5.568 1.12 8.576 0.032 0.416 0.096 0.992 0.128 1.568 0.096 2.816-0.032 5.856-0.544 10.112-1.76 12.512-7.296 23.744-16 32.512l-40.256 40.224 1.984 3.232c16.32 26.784 28.16 54.784 35.2 83.232l0.896 3.648 56.192 0c1.376 0 2.592 0.16 3.552 0.32l1.568 0.192c10.656 0.96 20.736 4.8 29.824 11.648 2.656 2.048 4.864 4.064 6.944 6.272 0.352 0.352 0.608 0.704 1.376 1.696 1.632 1.888 3.328 3.904 4.864 6.304 0.576 0.864 0.992 1.728 1.888 3.456l0.608 1.088c0.768 1.376 1.632 2.944 2.368 4.704 0.64 1.6 1.056 3.136 1.44 4.512l0.768 2.528c0.288 0.896 0.672 2.016 0.928 3.328 0.736 3.744 1.152 7.52 1.152 11.168L918.656 519.136z" p-id="29083" fill="#ffffff"></path></svg>